<svg xmlns="http://www.w3.org/2000/svg" xmlns:xlink="http://www.w3.org/1999/xlink" viewBox="0 0 808.15 119.2"><defs><style>.cls-1{fill:none;}.cls-2{clip-path:url(#clip-path);}.cls-3{fill:#fff;}.cls-4{fill:#f4b433;}.cls-5{fill:#ffc829;}.cls-6{fill:#1a4070;}</style><clipPath id="clip-path" transform="translate(0)"><rect class="cls-1" width="808.15" height="119.2"/></clipPath></defs><title>da-logo-white-txt</title><g id="Layer_2" data-name="Layer 2"><g id="Layer_1-2" data-name="Layer 1"><g class="cls-2"><path class="cls-3" d="M175.29,52c0-13.86-10.68-24.43-26.14-24.43H132.07v49h17.08c15.46,0,26.14-10.71,26.14-24.57m-5.76.14c0,10.92-7.94,19.32-20.38,19.32H137.62V32.65h11.52c12.44,0,20.38,8.54,20.38,19.46m17.74,24.43h5.55v-49h-5.55Zm62.43-6.65V50.36H229.39v5h15V67.51a23.21,23.21,0,0,1-14.2,4.9c-11.95,0-19.46-8.68-19.46-20.44,0-11,7.8-20.16,18.69-20.16a21,21,0,0,1,15,5.6l3.58-4.2c-4.92-4.13-10.05-6.51-18.34-6.51-14.76,0-24.67,11.9-24.67,25.42,0,14.07,9.56,25.27,25,25.27a29.87,29.87,0,0,0,19.75-7.49m13.38,6.65h5.55v-49h-5.55Zm37.47-43.9h16.51V27.53H278.41v5.11h16.51v43.9h5.62Zm43.24-5.46h-5.2L316.17,76.54h5.69l5.83-13h26.78l5.76,13h6Zm8.5,31.43H329.87l11.24-25Zm23.25,17.92h33.24V71.43H381.1V27.53h-5.55Zm58,0h14.34l3.51-8.75h19L474,76.54h14.62L467.68,27.18H454.53Zm21.86-19.32L461,43.29l5.48,13.93Zm59,20.3c10.89,0,17.15-4.69,21.79-11.06L526,59.18c-3,3.57-6,6-11.1,6-6.89,0-11.73-5.74-11.73-13.09V51.9c0-7.14,4.85-13,11.73-13,4.71,0,7.94,2.24,10.75,5.74l10.26-7.91c-4.36-6-10.82-10.22-20.87-10.22-14.9,0-25.93,11.2-25.93,25.48v.14a24.94,24.94,0,0,0,25.37,25.35m23.32-1H552.1l3.51-8.75h19l3.58,8.75h14.62L571.84,27.18H558.7Zm21.86-19.32,5.55-13.93,5.48,13.93Zm38,19.32h18.69c17.71,0,28-10.5,28-24.64v-.14c0-14.14-10.19-24.22-27.76-24.22h-19Zm13.63-12V39.57h5.55c8.15,0,13.56,4.55,13.56,12.39v.14c0,7.91-5.41,12.39-13.56,12.39Zm40.52,12h39.92V65H665.3V57.22h23.61V46.51H665.3V39.09h26.07V27.53H651.81Zm48.32,0h13.35v-28l12.51,19h.28L738.85,48.4V76.54h13.57v-49H738l-11.74,19-11.73-19H700.13Zm75.62,0h13.7V58l18.7-30.46H792.89L782.71,45.39,772.59,27.53H757.06L775.75,58.2Z" transform="translate(0)"/><path class="cls-3" d="M149.29,95.26H131.78v23.54h17.68v-3.7H135.93v-6.32h11.85v-3.7H135.93V99h13.36ZM178,107c0-6.66-5.13-11.73-12.55-11.73h-8.81v23.54h8.81c7.43,0,12.55-5.14,12.55-11.8m-4.35.07c0,4.64-3.24,8-8.2,8h-4.66V99h4.66c5,0,8.2,3.4,8.2,8m31.24-11.8h-4.15v13.55c0,4.34-2.26,6.56-5.94,6.56s-6-2.35-6-6.72V95.26h-4.15v13.55c0,6.83,3.91,10.35,10.06,10.35s10.16-3.53,10.16-10.56ZM233.2,115l-2.67-2.69c-2,1.88-3.88,3.06-6.78,3.06-4.52,0-7.8-3.77-7.8-8.41s3.27-8.34,7.8-8.34a9.41,9.41,0,0,1,6.62,2.93L233,98.52a12.32,12.32,0,0,0-9.25-3.67,12.17,12.17,0,0,0-.17,24.35A12.22,12.22,0,0,0,233.2,115m18.6-19.94H248l-10.39,23.7h4.25l2.43-5.68h11.17l2.39,5.68h4.39Zm2.09,14.36h-8.13l4-9.41Zm21.37-10.35h7.49V95.26H263.59v3.84h7.5v19.7h4.18Zm13.7,19.7h4.15V95.26H289ZM325,107a12.35,12.35,0,1,0-12.39,12.21A12,12,0,0,0,325,107m-4.35.07c0,4.61-3.27,8.34-8,8.34a8.09,8.09,0,0,1-8-8.41c0-4.61,3.27-8.34,8-8.34a8.09,8.09,0,0,1,8,8.41m28,4.47L336,95.26h-3.85v23.54h4.08V102l13,16.74h3.48V95.26h-4.08Zm42.73-9.62v16.88h4.15V95.26h-4.42l-7.19,11.13-7.19-11.13h-4.42v23.54h4.09V102l7.39,11h.13Zm24.32-6.83h-3.84l-10.4,23.7h4.25l2.43-5.68h11.17l2.4,5.68h4.39Zm2.09,14.36h-8.13l4-9.41Zm30.74,2.09L435.89,95.26h-3.84v23.54h4.08V102l13,16.74h3.48V95.26h-4.08Zm24.24-16.44h-3.85l-10.4,23.7h4.25l2.43-5.68H476.4l2.39,5.68h4.39Zm2.09,14.36h-8.13l4-9.41Zm34,6.09v-9.88H498.87v3.6h6v4.41a9.67,9.67,0,0,1-5.7,1.78c-4.82,0-8-3.57-8-8.44,0-4.57,3.3-8.34,7.66-8.34a9.27,9.27,0,0,1,6.62,2.52L508.08,98a12.78,12.78,0,0,0-9.08-3.2,12,12,0,0,0-12.18,12.21c0,6.89,4.86,12.14,12.25,12.14a15.1,15.1,0,0,0,9.85-3.67m25.24-20.28H516.65v23.54h17.68v-3.7H520.8v-6.32h11.84v-3.7H520.8V99h13.36Zm26.39,6.66v16.88h4.15V95.26h-4.42l-7.19,11.13-7.19-11.13h-4.42v23.54h4.08V102L553,113h.13Zm30-6.66H573.06v23.54h17.68v-3.7H577.21v-6.32h11.85v-3.7H577.21V99h13.36Zm23.83,16.28L601.74,95.26h-3.85v23.54H602V102l13,16.74h3.48V95.26H614.4Zm21.84-12.44h7.49V95.26H624.56v3.84h7.49v19.7h4.18Zm28.89,2.32c0-1.58,1.42-2.82,3.85-2.82a10.76,10.76,0,0,1,6.41,2.42l2.23-3.13a13.14,13.14,0,0,0-8.57-3c-4.69,0-8.07,2.76-8.07,6.86,0,4.37,2.84,5.85,7.86,7.06,4.39,1,5.33,1.92,5.33,3.63s-1.62,3-4.18,3a10.9,10.9,0,0,1-7.46-3.06l-2.5,3a14.59,14.59,0,0,0,9.85,3.77c5,0,8.44-2.63,8.44-7.06,0-3.94-2.6-5.72-7.59-6.93-4.52-1.08-5.6-1.88-5.6-3.73m30.84,8,9.38-14.16H700.6l-6.68,10.43L687.3,95.26h-4.9l9.38,14.26v9.28H696Zm17.68-8c0-1.58,1.42-2.82,3.84-2.82a10.76,10.76,0,0,1,6.41,2.42l2.23-3.13a13.15,13.15,0,0,0-8.58-3c-4.69,0-8.07,2.76-8.07,6.86,0,4.37,2.84,5.85,7.86,7.06,4.39,1,5.33,1.92,5.33,3.63s-1.62,3-4.19,3a10.9,10.9,0,0,1-7.46-3.06l-2.5,3a14.58,14.58,0,0,0,9.85,3.77c5,0,8.44-2.63,8.44-7.06,0-3.94-2.6-5.72-7.6-6.93-4.52-1.08-5.6-1.88-5.6-3.73m30-2.32h7.49V95.26H732v3.84h7.49v19.7h4.18Zm31.09-3.84H757.22v23.54H774.9v-3.7H761.37v-6.32h11.85v-3.7H761.37V99h13.37Zm26.39,6.66v16.88h4.15V95.26h-4.42l-7.19,11.13-7.19-11.13h-4.42v23.54h4.08V102l7.39,11h.14Z" transform="translate(0)"/><path class="cls-4" d="M67.89,28.45a32.53,32.53,0,0,0-14.21,3.29A32.35,32.35,0,0,0,39.5,28.45C18.77,28.45,0,38.22,0,62.62s9.87,54.22,39.5,54.22a32.57,32.57,0,0,0,13.9-3.13.56.56,0,0,1,.12,0v.12a.44.44,0,0,1,.15-.05.48.48,0,0,1,.18.05v-.12a.57.57,0,0,1,.14,0,32.45,32.45,0,0,0,13.89,3.13c29.62,0,39.47-29.8,39.47-54.22S88.6,28.45,67.89,28.45" transform="translate(0)"/><path class="cls-5" d="M53.43,111.07a51.69,51.69,0,0,1-7.32,2.8c.6,2.79,3.56,5,7.18,5,3.82,0,7-2.44,7.27-5.5a68.09,68.09,0,0,1-7.12-2.25" transform="translate(0)"/><path class="cls-5" d="M76.58.39s2.35,13.39-4.48,20.19S51.85,25,51.85,25,49.48,11.64,56.32,4.84,76.58.39,76.58.39" transform="translate(0)"/><path class="cls-5" d="M55.59,34.45v0a36.66,36.66,0,0,0-20.84-31Q33.16,6.71,31.56,10A32.74,32.74,0,0,1,53.89,34.8c0,.21.45.32.92.23s.74-.35.78-.55h0Z" transform="translate(0)"/><path class="cls-6" d="M54,105.93a37.46,37.46,0,0,0,20.18-5.69l-1.53-2.43A34.33,34.33,0,0,1,54,102.9c-18.12,0-30.76-13.2-30.76-30.11,0-16.77,12.79-30.27,30.53-30.27C71.17,42.52,83.42,55,83.42,69c0,10.09-4,15.4-9,15.4-3.12,0-4.95-2-4.95-4.47a24.68,24.68,0,0,1,.3-3.34L73.3,57,61.5,55.19l-.91,4.63a11.61,11.61,0,0,0-10.2-5.61c-9.06,0-16.83,8.87-16.83,19.72,0,9.25,6,15.25,13.93,15.25,4.72,0,8.3-2.27,11.19-5.61,1.83,3.11,5.33,5.77,11.73,5.77,8.3,0,16.22-6.6,16.22-20.33,0-15.55-13.93-29.51-32.82-29.51a33.23,33.23,0,0,0-33.73,33.3c0,18.36,14.31,33.15,34,33.15m-2.74-27c-3.2,0-5.56-2.12-5.56-5.92,0-4.78,3.2-8.57,7.31-8.57a5.37,5.37,0,0,1,5.56,5.77c0,4.85-3.27,8.72-7.31,8.72" transform="translate(0)"/></g></g></g></svg>